<?xml version="1.0" encoding="UTF-8" standalone="no"?>
<!DOCTYPE svg PUBLIC "-//W3C//DTD SVG 1.1//EN" "http://www.w3.org/Graphics/SVG/1.1/DTD/svg11.dtd">
<svg width="100%" height="100%" viewBox="0 0 1024 1024" version="1.1" xmlns="http://www.w3.org/2000/svg" xmlns:xlink="http://www.w3.org/1999/xlink" xml:space="preserve" xmlns:serif="http://www.serif.com/" style="fill-rule:evenodd;clip-rule:evenodd;stroke-linejoin:round;stroke-miterlimit:2;">
    <g id="Ebene1">
    </g>
    <g transform="matrix(0.1,0,0,-0.1,0,1024)">
        <g transform="matrix(41.7213,0,0,-44.9123,-190.328,10778.9)">
            <path d="M165,12C237,12 250,27 250,99L250,155C250,225 237,240 165,240L91,240C19,240 6,225 6,155L6,99C6,27 19,12 91,12L165,12Z" style="fill:rgb(20,26,35);fill-rule:nonzero;"/>
        </g>
        <g transform="matrix(41.7213,0,0,-44.9123,-190.328,10778.9)">
            <path d="M91,12C19,12 6,27 6,99L6,155C6,225 19,240 91,240L165,240C237,240 250,225 250,155L250,99C250,27 237,12 165,12L91,12ZM91,16L165,16C233,16 245,31 245,99L245,155C245,221 233,236 165,236L91,236C23,236 11,221 11,155L11,99C11,31 23,16 91,16Z" style="fill:url(#_Linear1);fill-rule:nonzero;"/>
        </g>
    </g>
    <g transform="matrix(0.0799482,0,0,-0.0799482,102.665,921.335)">
        <g id="Ebene2">
            <g>
                <g transform="matrix(54.1564,0,0,-54.1564,-15296.4,37546.1)">
                    <path d="M423.666,539.465C432.941,545.546 442.147,559.747 445.748,573.608C451.694,596.573 443.234,624.771 425.942,639.549C424.583,640.704 422.919,641.927 422.273,642.233C421.186,642.743 421.016,642.743 420.235,642.267C419.793,641.961 419.419,641.418 419.419,641.078C419.419,640.738 420.914,638.598 422.749,636.322C424.583,634.046 427.029,630.58 428.184,628.678C433.178,620.354 436.814,609.483 438.139,598.816C438.716,593.889 438.376,582.135 437.459,577.311C434.945,563.823 428.864,551.287 420.71,542.658C418.162,540.008 417.721,538.683 419.182,538.106C420.507,537.596 420.982,537.732 423.666,539.465Z" style="fill:rgb(196,168,114);"/>
                </g>
                <g transform="matrix(54.1564,0,0,-54.1564,-15296.4,37546.1)">
                    <path d="M363.466,542.522C370.94,543.779 376.885,546.259 383.17,550.676C389.115,554.888 394.008,560.188 396.963,565.624C404.505,579.655 405.015,598.272 398.22,611.725C394.925,618.282 387.994,626.3 382.423,630.003C377.633,633.128 371.042,636.22 366.082,637.579L364.893,637.918L366.082,637.952C370.498,638.088 379.229,641.859 386.567,646.785C394.551,652.153 398.39,653.512 404.573,653.138C406.578,653.002 408.208,652.731 408.65,652.425C409.635,651.779 410.417,652.255 410.145,653.342C409.703,655.075 403.758,658.336 399.375,659.254C397.541,659.627 395.978,659.729 393.906,659.593C387.213,659.118 382.321,656.875 370.6,648.994C358.846,641.112 357.317,640.365 347.804,638.462C340.636,637.035 338.054,636.322 334.181,634.589C329.357,632.483 323.038,628.474 323.446,627.828C323.514,627.659 323.174,627.183 322.664,626.741L321.747,625.926L322.562,626.843C323.038,627.387 323.242,627.795 323.072,627.795C322.528,627.795 317.398,622.461 317.602,622.087C317.738,621.917 317.398,621.408 316.889,620.966L315.972,620.151L316.651,621.034C317.025,621.509 316.821,621.374 316.243,620.728C315.632,620.083 315.224,619.437 315.326,619.267C315.394,619.131 314.918,618.282 314.239,617.399C312.812,615.496 309.721,609.177 308.701,606.052C305.95,597.525 305.576,586.551 307.716,578.024C309.992,568.919 315.462,559.781 322.087,554.039C325.042,551.457 330.036,548.162 333.739,546.293C338.767,543.779 342.471,542.76 349.435,542.081C353.274,541.673 359.831,541.877 363.466,542.522ZM348.586,547.754C342.912,548.875 338.02,551.559 333.638,555.942C327.692,561.921 323.378,570.04 321.543,578.704C317.772,596.777 322.223,612.778 334.113,624.159C340.16,629.935 345.188,631.939 353.851,631.973C362.515,632.041 369.989,629.289 376.036,623.752C382.389,617.908 387.213,607.649 388.47,597.389C388.98,593.074 388.946,585.226 388.334,581.319C386.126,566.473 377.667,554.515 366.082,549.792C361.088,547.754 353.24,546.837 348.586,547.754Z" style="fill:rgb(196,168,114);"/>
                </g>
                <g transform="matrix(54.1564,0,0,-54.1564,-15296.4,37546.1)">
                    <path d="M418.91,567.9C421.831,571.909 424.142,578.771 424.855,585.498C425.84,594.943 422.715,607.445 417.823,613.458C416.43,615.157 415.716,615.598 414.731,615.326C413.678,615.055 413.78,614.103 415.309,610.604C417.041,606.595 418.536,601.839 419.419,597.626C421.05,589.643 419.895,578.975 416.498,570.788C415.411,568.138 415.377,567.934 415.886,567.153C416.702,565.896 417.585,566.1 418.91,567.9Z" style="fill:rgb(196,168,114);"/>
                </g>
            </g>
        </g>
    </g>
    <defs>
        <linearGradient id="_Linear1" x1="0" y1="0" x2="1" y2="0" gradientUnits="userSpaceOnUse" gradientTransform="matrix(1.3961e-14,228,-228,1.3961e-14,128.035,12)"><stop offset="0" style="stop-color:rgb(35,46,62);stop-opacity:1"/><stop offset="0.73" style="stop-color:rgb(20,26,35);stop-opacity:0.1"/><stop offset="0.92" style="stop-color:rgb(146,131,116);stop-opacity:0.1"/><stop offset="1" style="stop-color:black;stop-opacity:0.49"/></linearGradient>
    </defs>
</svg>
