<?xml version="1.0" encoding="UTF-8" standalone="no"?>
<svg
   width="256"
   height="256"
   style="isolation:isolate"
   version="1.1"
   id="svg6"
   sodipodi:docname="qobux-icon.svg"
   inkscape:version="1.4.2 (ebf0e940d0, 2025-05-08)"
   xmlns:inkscape="http://www.inkscape.org/namespaces/inkscape"
   xmlns:sodipodi="http://sodipodi.sourceforge.net/DTD/sodipodi-0.dtd"
   xmlns="http://www.w3.org/2000/svg"
   xmlns:svg="http://www.w3.org/2000/svg">
  <sodipodi:namedview
     id="namedview6"
     pagecolor="#ffffff"
     bordercolor="#000000"
     borderopacity="0.25"
     inkscape:showpageshadow="2"
     inkscape:pageopacity="0.0"
     inkscape:pagecheckerboard="0"
     inkscape:deskcolor="#d1d1d1"
     inkscape:zoom="1.1766699"
     inkscape:cx="77.336898"
     inkscape:cy="227.76141"
     inkscape:window-width="2048"
     inkscape:window-height="1096"
     inkscape:window-x="0"
     inkscape:window-y="0"
     inkscape:window-maximized="1"
     inkscape:current-layer="layer2" />
  <g
     filter="url(#a)"
     id="g2"
     sodipodi:insensitive="true">
    <linearGradient
       id="b"
       x1="0.50019997"
       x2="0.50019997"
       y2="1"
       gradientTransform="matrix(244,0,0,228,5.981,12)"
       gradientUnits="userSpaceOnUse">
      <stop
         stop-color="#504945"
         offset="0"
         id="stop1" />
      <stop
         stop-color="#3c3836"
         offset="1"
         id="stop2" />
    </linearGradient>
    <path
       d="m 165,12 c 72,0 85,15 85,87 v 56 c 0,70 -13,85 -85,85 H 91 C 19,240 6,225 6,155 V 99 C 6,27 19,12 91,12 Z"
       fill="url(#b)"
       id="path2" />
  </g>
  <defs
     id="defs6">
    <rect
       x="48.441793"
       y="39.943233"
       width="226.0617"
       height="88.385025"
       id="rect2" />
    <rect
       x="60.339778"
       y="56.940353"
       width="159.77293"
       height="157.22336"
       id="rect1" />
    <linearGradient
       id="linearGradient31"
       x1=".5002"
       x2=".5002"
       y2="1"
       gradientTransform="matrix(244,0,0,228,5.986,12)"
       gradientUnits="userSpaceOnUse">
      <stop
         stop-color="#928374"
         offset="0"
         id="stop3" />
      <stop
         stop-color="#928374"
         stop-opacity=".09804"
         offset=".1"
         id="stop4" />
      <stop
         stop-opacity=".09804"
         offset=".9"
         id="stop5" />
      <stop
         stop-opacity=".498"
         offset="1"
         id="stop6" />
    </linearGradient>
  </defs>
  <g
     opacity="0.4"
     id="g6"
     sodipodi:insensitive="true">
    <path
       d="M 91,12 C 19,12 6,27 6,99 v 56 c 0,70 13,85 85,85 h 74 c 72,0 85,-15 85,-85 V 99 C 250,27 237,12 165,12 Z m 0,4 h 74 c 68,0 80,15 80,83 v 56 c 0,66 -12,81 -80,81 H 91 C 23,236 11,221 11,155 V 99 C 11,31 23,16 91,16 Z"
       fill="url(#linearGradient31)"
       id="path6" />
  </g>
  <g
     inkscape:groupmode="layer"
     id="layer2"
     inkscape:label="Layer 2"
     style="display:inline">
    <text
       xml:space="preserve"
       id="text1"
       style="font-style:normal;font-variant:normal;font-weight:normal;font-stretch:normal;font-size:74.6667px;font-family:Comfortaa;-inkscape-font-specification:Comfortaa;text-align:start;writing-mode:lr-tb;direction:ltr;white-space:pre;shape-inside:url(#rect2);fill:#ebdbb2"
       transform="matrix(1.1263949,0,0,1.1993949,-46.969138,18.5835)"><tspan
         x="48.441406"
         y="108.27344"
         id="tspan3"><tspan
           style="font-weight:600;font-size:64px;-inkscape-font-specification:'Comfortaa Semi-Bold'"
           id="tspan1">qobux</tspan></tspan></text>
  </g>
</svg>
