<?xml version="1.0" encoding="UTF-8" standalone="no"?>
<svg
   width="100%"
   height="100%"
   viewBox="0 0 1024 1024"
   version="1.1"
   xml:space="preserve"
   style="fill-rule:evenodd;clip-rule:evenodd;stroke-linejoin:round;stroke-miterlimit:2;"
   id="svg11"
   sodipodi:docname="tray-icon-white.svg"
   inkscape:export-filename="tray-icon-white.png"
   inkscape:export-xdpi="2.0625"
   inkscape:export-ydpi="2.0625"
   inkscape:version="1.4.2 (ebf0e940d0, 2025-05-08)"
   xmlns:inkscape="http://www.inkscape.org/namespaces/inkscape"
   xmlns:sodipodi="http://sodipodi.sourceforge.net/DTD/sodipodi-0.dtd"
   xmlns="http://www.w3.org/2000/svg"
   xmlns:svg="http://www.w3.org/2000/svg"><sodipodi:namedview
   id="namedview11"
   pagecolor="#ffffff"
   bordercolor="#000000"
   borderopacity="0.25"
   inkscape:showpageshadow="2"
   inkscape:pageopacity="0.0"
   inkscape:pagecheckerboard="0"
   inkscape:deskcolor="#d1d1d1"
   inkscape:zoom="0.31557402"
   inkscape:cx="749.42798"
   inkscape:cy="53.870087"
   inkscape:window-width="2048"
   inkscape:window-height="1096"
   inkscape:window-x="0"
   inkscape:window-y="0"
   inkscape:window-maximized="1"
   inkscape:current-layer="svg11" />
    <g
   id="Ebene1">
    </g>
    
    <g
   transform="matrix(0.11673721,0,0,-0.11673721,-78.024095,1113.7891)"
   id="g8"
   style="fill:#ffffff;fill-opacity:1">
        <g
   id="Ebene2"
   style="fill:#ffffff;fill-opacity:1">
            <g
   id="g7"
   style="fill:#ffffff;fill-opacity:1">
                <g
   transform="matrix(54.1564,0,0,-54.1564,-15296.4,37546.1)"
   id="g4"
   style="fill:#ffffff;fill-opacity:1">
                    <path
   d="m 423.666,539.465 c 9.275,6.081 18.481,20.282 22.082,34.143 5.946,22.965 -2.514,51.163 -19.806,65.941 -1.359,1.155 -3.023,2.378 -3.669,2.684 -1.087,0.51 -1.257,0.51 -2.038,0.034 -0.442,-0.306 -0.816,-0.849 -0.816,-1.189 0,-0.34 1.495,-2.48 3.33,-4.756 1.834,-2.276 4.28,-5.742 5.435,-7.644 4.994,-8.324 8.63,-19.195 9.955,-29.862 0.577,-4.927 0.237,-16.681 -0.68,-21.505 -2.514,-13.488 -8.595,-26.024 -16.749,-34.653 -2.548,-2.65 -2.989,-3.975 -1.528,-4.552 1.325,-0.51 1.8,-0.374 4.484,1.359 z"
   style="fill:#ffffff;fill-opacity:1"
   id="path3" />
                </g>
                <g
   transform="matrix(54.1564,0,0,-54.1564,-15296.4,37546.1)"
   id="g5"
   style="fill:#ffffff;fill-opacity:1">
                    <path
   d="m 363.466,542.522 c 7.474,1.257 13.419,3.737 19.704,8.154 5.945,4.212 10.838,9.512 13.793,14.948 7.542,14.031 8.052,32.648 1.257,46.101 -3.295,6.557 -10.226,14.575 -15.797,18.278 -4.79,3.125 -11.381,6.217 -16.341,7.576 l -1.189,0.339 1.189,0.034 c 4.416,0.136 13.147,3.907 20.485,8.833 7.984,5.368 11.823,6.727 18.006,6.353 2.005,-0.136 3.635,-0.407 4.077,-0.713 0.985,-0.646 1.767,-0.17 1.495,0.917 -0.442,1.733 -6.387,4.994 -10.77,5.912 -1.834,0.373 -3.397,0.475 -5.469,0.339 -6.693,-0.475 -11.585,-2.718 -23.306,-10.599 -11.754,-7.882 -13.283,-8.629 -22.796,-10.532 -7.168,-1.427 -9.75,-2.14 -13.623,-3.873 -4.824,-2.106 -11.143,-6.115 -10.735,-6.761 0.068,-0.169 -0.272,-0.645 -0.782,-1.087 l -0.917,-0.815 0.815,0.917 c 0.476,0.544 0.68,0.952 0.51,0.952 -0.544,0 -5.674,-5.334 -5.47,-5.708 0.136,-0.17 -0.204,-0.679 -0.713,-1.121 l -0.917,-0.815 0.679,0.883 c 0.374,0.475 0.17,0.34 -0.408,-0.306 -0.611,-0.645 -1.019,-1.291 -0.917,-1.461 0.068,-0.136 -0.408,-0.985 -1.087,-1.868 -1.427,-1.903 -4.518,-8.222 -5.538,-11.347 -2.751,-8.527 -3.125,-19.501 -0.985,-28.028 2.276,-9.105 7.746,-18.243 14.371,-23.985 2.955,-2.582 7.949,-5.877 11.652,-7.746 5.028,-2.514 8.732,-3.533 15.696,-4.212 3.839,-0.408 10.396,-0.204 14.031,0.441 z m -14.88,5.232 c -5.674,1.121 -10.566,3.805 -14.948,8.188 -5.946,5.979 -10.26,14.098 -12.095,22.762 -3.771,18.073 0.68,34.074 12.57,45.455 6.047,5.776 11.075,7.78 19.738,7.814 8.664,0.068 16.138,-2.684 22.185,-8.221 6.353,-5.844 11.177,-16.103 12.434,-26.363 0.51,-4.315 0.476,-12.163 -0.136,-16.07 -2.208,-14.846 -10.667,-26.804 -22.252,-31.527 -4.994,-2.038 -12.842,-2.955 -17.496,-2.038 z"
   style="fill:#ffffff;fill-opacity:1"
   id="path4" />
                </g>
                <g
   transform="matrix(54.1564,0,0,-54.1564,-15296.4,37546.1)"
   id="g6"
   style="fill:#ffffff;fill-opacity:1">
                    <path
   d="m 418.91,567.9 c 2.921,4.009 5.232,10.871 5.945,17.598 0.985,9.445 -2.14,21.947 -7.032,27.96 -1.393,1.699 -2.107,2.14 -3.092,1.868 -1.053,-0.271 -0.951,-1.223 0.578,-4.722 1.732,-4.009 3.227,-8.765 4.11,-12.978 1.631,-7.983 0.476,-18.651 -2.921,-26.838 -1.087,-2.65 -1.121,-2.854 -0.612,-3.635 0.816,-1.257 1.699,-1.053 3.024,0.747 z"
   style="fill:#ffffff;fill-opacity:1"
   id="path5" />
                </g>
            </g>
        </g>
    </g>
    <defs
   id="defs11">
        <linearGradient
   id="_Linear1"
   x1="0"
   y1="0"
   x2="1"
   y2="0"
   gradientUnits="userSpaceOnUse"
   gradientTransform="matrix(1.3961e-14,228,-228,1.3961e-14,128.035,12)"><stop
     offset="0"
     style="stop-color:rgb(35,46,62);stop-opacity:1"
     id="stop8" /><stop
     offset="0.73"
     style="stop-color:rgb(20,26,35);stop-opacity:0.1"
     id="stop9" /><stop
     offset="0.92"
     style="stop-color:rgb(146,131,116);stop-opacity:0.1"
     id="stop10" /><stop
     offset="1"
     style="stop-color:black;stop-opacity:0.49"
     id="stop11" /></linearGradient>
    </defs>
</svg>
